<svg xmlns="http://www.w3.org/2000/svg" width="9" height="18" viewBox="0 0 9 18" class="fill-current">
                    <path d="M8.13643 7.00049H6.78036H6.29605V6.43597V4.68597V4.12146H6.78036H7.79741C8.06378 4.12146 8.28172 3.89565 8.28172 3.55694V0.565004C8.28172 0.254521 8.088 0.000488281 7.79741 0.000488281H6.02968C4.11665 0.000488281 2.78479 1.58113 2.78479 3.92388V6.37952V6.94404H2.30048H0.65382C0.314802 6.94404 0 7.25452 0 7.70613V9.73839C0 10.1336 0.266371 10.5005 0.65382 10.5005H2.25205H2.73636V11.065V16.7384C2.73636 17.1336 3.00273 17.5005 3.39018 17.5005H5.66644C5.81174 17.5005 5.93281 17.4158 6.02968 17.3029C6.12654 17.19 6.19919 16.9924 6.19919 16.8231V11.0932V10.5287H6.70771H7.79741C8.11222 10.5287 8.35437 10.3029 8.4028 9.9642V9.93597V9.90775L8.74182 7.96017C8.76604 7.76258 8.74182 7.53678 8.59653 7.31097C8.54809 7.16984 8.33016 7.02871 8.13643 7.00049Z"/>
                  </svg>