<svg width="46" height="50" viewBox="0 0 46 50" fill="none" xmlns="http://www.w3.org/2000/svg">
                    <path opacity="0.5" d="M35.7142 42.8576C32.4285 42.8576 29.7618 40.191 29.7618 36.9053C29.7618 36.0793 29.923 35.2891 30.2299 34.5658C30.3139 34.3676 30.2782 34.136 30.1261 33.9838L28.2169 32.0746C27.9938 31.8515 27.6217 31.8881 27.4637 32.1613C26.6592 33.5524 26.1904 35.1726 26.1904 36.9053C26.1904 42.1672 30.4523 46.4291 35.7142 46.4291V48.7934C35.7142 49.2388 36.2528 49.4619 36.5678 49.1469L40.7178 44.9969C40.9131 44.8016 40.9131 44.4851 40.7178 44.2898L36.5678 40.1398C36.2528 39.8248 35.7142 40.0479 35.7142 40.4933V42.8576ZM35.7142 27.3815V25.0172C35.7142 24.5717 35.1756 24.3486 34.8607 24.6636L30.7106 28.8136C30.5154 29.0089 30.5154 29.3255 30.7106 29.5207L34.8607 33.6708C35.1756 33.9857 35.7142 33.7627 35.7142 33.3172V30.9529C38.9999 30.9529 41.6666 33.6196 41.6666 36.9053C41.6666 37.7313 41.5054 38.5215 41.1985 39.2448C41.1145 39.4429 41.1502 39.6746 41.3024 39.8268L43.2115 41.7359C43.4346 41.959 43.8067 41.9224 43.9647 41.6493C44.7692 40.2581 45.238 38.638 45.238 36.9053C45.238 31.6434 40.9761 27.3815 35.7142 27.3815Z" fill="#4A6CF7"/>
                    <path d="M21.4285 36.9052C21.4285 40.2265 22.4724 43.2906 24.2586 45.8081C24.7693 46.5279 24.2883 47.6194 23.4058 47.6194H4.76189C2.11904 47.6194 0 45.5004 0 42.8575V4.76238C0 2.14334 2.11904 0.000488281 4.76189 0.000488281H7.14284H19.0476H33.3333C35.9523 0.000488281 38.0951 2.11953 38.0951 4.76238V20.306C38.0951 20.9267 37.5253 21.429 36.9047 21.429C28.3571 21.429 21.4285 28.3576 21.4285 36.9052Z" fill="#4A6CF7"/>
                  </svg>