<svg width="50" height="50" viewBox="0 0 50 50" fill="none" xmlns="http://www.w3.org/2000/svg">
                    <path opacity="0.5" d="M27.2727 0.000488281V15.9096H34.0909L25 27.2732L15.9091 15.9096H22.7273V0.000488281H27.2727Z" fill="#4A6CF7"/>
                    <path d="M43.1818 0.000488281H34.0909V4.54594H43.1818C43.7846 4.54594 44.3627 4.78539 44.7889 5.21161C45.2151 5.63783 45.4545 6.21591 45.4545 6.81867V31.8187H31.8182V38.6369H18.1818V31.8187H4.54545V6.81867C4.54545 6.21591 4.7849 5.63783 5.21112 5.21161C5.63734 4.78539 6.21542 4.54594 6.81818 4.54594H15.9091V0.000488281H6.81818C5.00989 0.000488281 3.27566 0.71883 1.997 1.99749C0.718341 3.27614 0 5.01038 0 6.81867V43.1823C0 44.9906 0.718341 46.7248 1.997 48.0035C3.27566 49.2821 5.00989 50.0005 6.81818 50.0005H43.1818C44.9901 50.0005 46.7243 49.2821 48.003 48.0035C49.2817 46.7248 50 44.9906 50 43.1823V6.81867C50 5.01038 49.2817 3.27614 48.003 1.99749C46.7243 0.71883 44.9901 0.000488281 43.1818 0.000488281Z" fill="#4A6CF7"/>
                  </svg>