<svg xmlns="http://www.w3.org/2000/svg" width="17" height="16" viewBox="0 0 17 16" class="fill-current">
                    <path d="M15.2196 0.000488281H1.99991C1.37516 0.000488281 0.875366 0.49798 0.875366 1.11984V14.3034C0.875366 14.9004 1.37516 15.4227 1.99991 15.4227H15.1696C15.7943 15.4227 16.2941 14.9252 16.2941 14.3034V1.09497C16.3441 0.49798 15.8443 0.000488281 15.2196 0.000488281ZM5.44852 13.1094H3.17444V5.77139H5.44852V13.1094ZM4.29899 4.75153C3.54929 4.75153 2.97452 4.15454 2.97452 3.43318C2.97452 2.71182 3.57428 2.11483 4.29899 2.11483C5.02369 2.11483 5.62345 2.71182 5.62345 3.43318C5.62345 4.15454 5.07367 4.75153 4.29899 4.75153ZM14.07 13.1094H11.796V9.55232C11.796 8.70659 11.771 7.58723 10.5964 7.58723C9.39693 7.58723 9.222 8.53246 9.222 9.4777V13.1094H6.94792V5.77139H9.17202V6.79124H9.19701C9.52188 6.19425 10.2466 5.59727 11.3711 5.59727C13.6952 5.59727 14.12 7.08974 14.12 9.12945V13.1094H14.07Z"/>
                  </svg>