<svg width="50" height="50" viewBox="0 0 50 50" fill="none" xmlns="http://www.w3.org/2000/svg">
                    <path d="M27.5265 0.000488281H2.11742C0.948003 0.000488281 0 0.948491 0 2.11791V33.8793C0 35.0487 0.948003 35.9967 2.11742 35.9967H27.5265C28.6959 35.9967 29.6439 35.0487 29.6439 33.8793V2.11791C29.6439 0.948491 28.6959 0.000488281 27.5265 0.000488281Z" fill="#4A6CF7"/>
                    <path opacity="0.5" d="M48.4022 15.1783L34.5141 11.4199L33.4088 15.5087L45.2663 18.7145L38.0692 45.2839L13.541 38.6542L12.4378 42.743L39.0115 49.9274C39.2799 49.9998 39.5601 50.0187 39.8358 49.9829C40.1116 49.9471 40.3776 49.8573 40.6186 49.7187C40.8597 49.5801 41.0711 49.3953 41.2407 49.175C41.4104 48.9547 41.535 48.7031 41.6074 48.4346L49.8929 17.7743C50.0393 17.2324 49.9645 16.6545 49.685 16.1677C49.4054 15.681 48.9441 15.3251 48.4022 15.1783Z" fill="#4A6CF7"/>
                  </svg>