<svg width="50" height="50" viewBox="0 0 50 50" fill="none" xmlns="http://www.w3.org/2000/svg">
                    <path d="M18.1818 20.455H2.27273C1.66996 20.455 1.09188 20.2156 0.665665 19.7894C0.239446 19.3631 0 18.7851 0 18.1823V2.27322C0 1.67045 0.239446 1.09237 0.665665 0.666153C1.09188 0.239934 1.66996 0.000488281 2.27273 0.000488281H18.1818C18.7846 0.000488281 19.3627 0.239934 19.7889 0.666153C20.2151 1.09237 20.4545 1.67045 20.4545 2.27322V18.1823C20.4545 18.7851 20.2151 19.3631 19.7889 19.7894C19.3627 20.2156 18.7846 20.455 18.1818 20.455Z" fill="#4A6CF7"/>
                    <path d="M18.1818 50.0004H2.27273C1.66996 50.0004 1.09188 49.761 0.665665 49.3348C0.239446 48.9086 0 48.3305 0 47.7277V31.8186C0 31.2159 0.239446 30.6378 0.665665 30.2116C1.09188 29.7853 1.66996 29.5459 2.27273 29.5459H18.1818C18.7846 29.5459 19.3627 29.7853 19.7889 30.2116C20.2151 30.6378 20.4545 31.2159 20.4545 31.8186V47.7277C20.4545 48.3305 20.2151 48.9086 19.7889 49.3348C19.3627 49.761 18.7846 50.0004 18.1818 50.0004Z" fill="#4A6CF7"/>
                    <path opacity="0.5" d="M27.2727 2.27319H50V6.81865H27.2727V2.27319ZM27.2727 13.6368H50V18.1823H27.2727V13.6368ZM27.2727 31.8186H50V36.3641H27.2727V31.8186ZM27.2727 43.1823H50V47.7277H27.2727V43.1823Z" fill="#4A6CF7"/>
                  </svg>